M48
INCH,TZ
T1C0.0118
T2C0.0157
T3C0.0256
T4C0.0354
T5C0.0390
T6C0.0394
T7C0.0394
T8C0.0512
%
G90
G05
T1
X53580Y-44680
X54960Y-44680
X57050Y-52900
X58920Y-32910
X59100Y-44680
X66490Y-52310
X66697Y-52100
X68355Y-45307
T2
X51530Y-40620
X51540Y-38870
X52520Y-45595
X52940Y-49020
X53550Y-50410
X54270Y-45480
X55650Y-45480
X57030Y-45480
X58410Y-45480
X58660Y-46800
X59700Y-37080
X59910Y-49952
X60086Y-45480
X61170Y-45480
X62540Y-49440
X62550Y-45480
X63930Y-45480
X65310Y-45480
X66175Y-52660
X66690Y-45480
X68070Y-45480
T3
X64058Y-51292
X65042Y-51292
X57398Y-48968
X57398Y-49952
T4
X49160Y-38520
X50160Y-38520
X49150Y-40310
X50150Y-40310
X49160Y-36730
X50160Y-36730
T5
X68220Y-48290
X68220Y-50062
X68210Y-34380
X68210Y-36152
T6
X55395Y-31107
X56395Y-31107
X57395Y-31107
X58395Y-31107
X64440Y-39470
X64440Y-40470
X65440Y-39470
X65440Y-40470
X66440Y-39470
X66440Y-40470
X67440Y-39470
X67440Y-40470
T7
X51050Y-52100
X52050Y-52100
X53050Y-52100
X54050Y-52100
X55050Y-52100
X56050Y-52100
X57050Y-52100
X58050Y-52100
X59050Y-52100
X60050Y-52100
X61050Y-52100
X62050Y-52100
X63050Y-52100
X64050Y-52100
X65050Y-52100
X51040Y-42100
X52040Y-42100
X53040Y-42100
X54040Y-42100
X55040Y-42100
X56040Y-42100
X57040Y-42100
X58040Y-42100
X59040Y-42100
X60040Y-42100
X61040Y-42100
X62040Y-42100
X63040Y-42100
X64040Y-42100
X65040Y-42100
T8
X67240Y-47798
X67240Y-50558
X67230Y-33888
X67230Y-36648
T0
M30
